<svg width="167" height="27" viewBox="0 0 167 27" fill="none" xmlns="http://www.w3.org/2000/svg">
<path d="M81.9143 18.3539C81.9143 18.6979 81.6339 18.9767 81.2881 18.9767C80.9423 18.9767 80.662 18.6979 80.662 18.3539C80.662 18.0099 80.9423 17.7311 81.2881 17.7311C81.6339 17.7311 81.9143 18.0099 81.9143 18.3539Z" fill="url(#paint0_linear_367_308)"/>
<path fill-rule="evenodd" clip-rule="evenodd" d="M50.5924 1.05201C50.5924 1.63302 50.1313 2.10402 49.5626 2.10402C49.1116 2.10402 48.7284 1.80784 48.589 1.3955C48.2999 1.31864 47.9454 1.24339 47.5757 1.2086C46.645 1.12105 45.8976 1.3032 45.5624 1.95388C45.4743 2.12487 45.3804 2.43214 45.2958 2.88546C45.2133 3.32692 45.147 3.8645 45.0948 4.46784C44.9905 5.67389 44.9457 7.10651 44.9329 8.48743C44.9201 9.8664 44.9393 11.1845 44.9618 12.1585L44.9618 12.1616C45.2133 12.3365 45.3757 12.6285 45.3703 12.9564L45.3703 12.9572L45.3701 12.9731L45.3694 13.0251C45.3688 13.0711 45.368 13.1391 45.3673 13.2262C45.3658 13.4004 45.3645 13.651 45.3652 13.9546C45.3666 14.5627 45.3758 15.3794 45.4071 16.2195C45.4386 17.064 45.4917 17.9126 45.578 18.5914C45.6213 18.9323 45.6703 19.2083 45.7223 19.4099C45.7398 19.4775 45.7551 19.5266 45.7668 19.5607C45.7916 19.5718 45.8244 19.5854 45.8668 19.6009C46.0395 19.6639 46.2933 19.7303 46.6277 19.7883C47.2934 19.9036 48.1922 19.9706 49.2182 19.9478C51.2809 19.9019 53.7302 19.4962 55.7268 18.5072C57.6361 17.5615 58.5481 16.164 58.9948 15.0043C59.2205 14.4185 59.3274 13.8915 59.3777 13.515C59.4027 13.3274 59.4134 13.1792 59.4179 13.0824C59.4201 13.034 59.4208 12.9987 59.421 12.9779L59.4211 12.9651L59.4211 12.958L59.4211 12.9569C59.4143 12.6143 59.5911 12.3104 59.8619 12.1386C59.8806 11.8673 59.8994 11.5505 59.9134 11.2119C59.9559 10.1862 59.9507 9.03626 59.799 8.32944C59.4653 6.77488 58.995 5.05297 57.7379 3.40997C57.1664 2.66299 56.5276 2.38994 56.0462 2.29192C56.0213 2.28685 55.9968 2.28224 55.9727 2.27806C55.7871 2.55413 55.4758 2.73519 55.1232 2.73519C54.5545 2.73519 54.0935 2.26419 54.0935 1.68318C54.0935 1.10217 54.5545 0.631171 55.1232 0.631171C55.4718 0.631171 55.7799 0.808118 55.9663 1.07889C56.0673 1.09052 56.174 1.107 56.2854 1.12968C57.014 1.27804 57.9198 1.6888 58.687 2.69151C60.1073 4.54787 60.6216 6.48024 60.9653 8.0817C61.1524 8.9529 61.1472 10.2419 61.105 11.2607C61.0896 11.6321 61.0688 11.9774 61.0483 12.2681C61.2164 12.4348 61.3227 12.6636 61.3288 12.9181L60.996 12.9256C61.3288 12.9183 61.3288 12.9188 61.3288 12.9191L61.3288 12.9202L61.3289 12.9227L61.329 12.9289L61.3291 12.9379L61.3292 12.9459C61.3293 12.9594 61.3293 12.9769 61.3291 12.9984C61.3287 13.0412 61.3274 13.0999 61.324 13.1726C61.3173 13.3179 61.3022 13.5205 61.2693 13.7671C61.2036 14.2591 61.066 14.9348 60.7768 15.6856C60.1938 17.1989 58.9948 19.0101 56.5791 20.2066C55.0772 20.9506 53.3993 21.396 51.7972 21.6318C51.8721 21.8926 51.9839 22.195 52.1505 22.5185C52.6701 23.527 53.7474 24.7896 56.0278 25.6323C56.5095 25.8103 57.1857 25.8626 58.0442 25.7654C58.8949 25.669 59.8801 25.431 60.9514 25.072C62.9591 24.3993 65.2204 23.3178 67.3829 22.0214C66.6306 21.1916 66.0076 20.1318 65.5743 18.8038C64.9551 16.9059 64.8941 15.3184 65.1832 14.0007C65.4724 12.6827 66.1038 11.6716 66.8121 10.9146C67.5172 10.1611 68.2982 9.65919 68.8986 9.34609C69.1998 9.18895 69.459 9.07763 69.6454 9.00478C69.7386 8.96832 69.814 8.94137 69.8677 8.92305C69.8946 8.91389 69.9161 8.90687 69.9316 8.90189C69.9394 8.8994 69.9458 8.89742 69.9506 8.89593L69.9567 8.89407L69.9588 8.89341L69.9593 8.89327L69.9597 8.89315L69.96 8.89307L69.9617 8.89255L69.9671 8.89096L69.9849 8.88574C70 8.8814 70.0212 8.87536 70.0483 8.86793C70.1024 8.85307 70.1798 8.83259 70.2772 8.80886C70.4717 8.76147 70.7474 8.70078 71.0776 8.64604C71.7328 8.53741 72.6264 8.4481 73.535 8.54494C74.4398 8.64136 75.4174 8.92888 76.173 9.62682C76.945 10.3399 77.4071 11.4083 77.4071 12.9012C77.4071 13.7243 77.1048 14.5751 76.6245 15.4076C76.1417 16.2444 75.4576 17.0996 74.6409 17.9427C73.2226 19.4069 71.3675 20.8722 69.3649 22.1816C70.3508 22.8527 71.4797 23.2007 72.621 23.3206C73.8375 23.4485 75.052 23.3151 76.0823 23.05C77.1248 22.7818 77.9249 22.3929 78.34 22.0528C79.3059 21.2616 79.7569 20.6378 79.9664 20.2454C80.0688 20.0537 80.1147 19.9153 80.1349 19.8366C79.7082 19.4896 79.4346 18.9545 79.4346 18.354C79.4346 17.3082 80.2645 16.4604 81.2881 16.4604C82.3118 16.4604 83.1417 17.3082 83.1417 18.354C83.1417 19.3998 82.3118 20.2476 81.2881 20.2476L81.2791 20.2476C81.2744 20.2476 81.2698 20.2475 81.2651 20.2475L81.2569 20.2473C81.2087 20.4012 81.1342 20.5872 81.0197 20.8017C80.7224 21.3584 80.1596 22.0989 79.098 22.9685C78.4993 23.4589 77.5164 23.9063 76.3806 24.1986C75.2326 24.494 73.8736 24.6453 72.4952 24.5004C71.1151 24.3553 69.6998 23.9111 68.4655 23.0008C68.405 22.9561 68.345 22.9104 68.2855 22.8636C65.9803 24.271 63.5285 25.4602 61.3318 26.1963C60.2084 26.5728 59.1378 26.8354 58.1788 26.9441C57.2277 27.0518 56.3405 27.0135 55.6122 26.7444C53.0528 25.7987 51.7448 24.3327 51.0891 23.0598C50.8436 22.5833 50.6929 22.1405 50.6003 21.772C50.1402 21.8122 49.6923 21.836 49.2634 21.8455C48.1398 21.8705 47.1142 21.7989 46.3028 21.6583C45.8988 21.5883 45.5258 21.4975 45.2114 21.3828C44.9329 21.2811 44.5624 21.1131 44.3058 20.8134C44.0622 20.5291 43.9433 20.1478 43.8742 19.8799C43.794 19.5695 43.733 19.206 43.6848 18.827C43.5881 18.0659 43.5325 17.1524 43.5002 16.2874C43.4678 15.418 43.4584 14.5778 43.457 13.9563C43.4563 13.6452 43.4577 13.3879 43.4592 13.2079C43.4599 13.1179 43.4607 13.0472 43.4613 12.9987L43.4621 12.9431L43.4624 12.9234L43.4624 12.9231C43.4624 12.923 43.4624 12.923 43.4877 12.9234L43.7887 12.9286L43.4624 12.9231C43.4669 12.6522 43.5849 12.4098 43.7707 12.2401L43.7694 12.1857C43.7468 11.2037 43.7274 9.87212 43.7403 8.47649C43.7532 7.0828 43.7985 5.61588 43.9066 4.36616C43.9606 3.74162 44.031 3.16227 44.1232 2.66882C44.2131 2.18723 44.3316 1.74163 44.501 1.41287C45.1955 0.0645558 46.6621 -0.0689788 47.6879 0.0275302C48.14 0.0700543 48.5618 0.160281 48.8969 0.249367C49.0764 0.0938199 49.3088 0 49.5626 0C50.1313 0 50.5924 0.471 50.5924 1.05201ZM59.4211 12.9594L59.8326 12.5313L59.8325 12.5318L59.4211 12.9602L59.4211 12.9594ZM81.0214 19.2555C81.1067 19.2836 81.1966 19.2985 81.2881 19.2985C81.761 19.2985 82.1876 18.8997 82.1876 18.354C82.1876 17.8083 81.761 17.4094 81.2881 17.4094C80.8153 17.4094 80.3887 17.8083 80.3887 18.354C80.3887 18.7497 80.613 19.0681 80.9166 19.2133C80.9531 19.2241 80.9882 19.2383 81.0214 19.2555ZM70.3049 10.0286L70.3064 10.0282L70.3171 10.025C70.3224 10.0235 70.3293 10.0215 70.3377 10.0192C70.3456 10.0169 70.3549 10.0144 70.3655 10.0114C70.4092 9.99943 70.4753 9.98191 70.5605 9.96115C70.7312 9.91956 70.9773 9.86531 71.2733 9.81624C71.8704 9.71726 72.6465 9.64343 73.4076 9.72453C74.1725 9.80605 74.8647 10.0375 75.3613 10.4963C75.8416 10.9399 76.2144 11.6658 76.2144 12.9016C76.2144 13.4427 76.012 14.0863 75.5901 14.8173C75.1708 15.5441 74.5552 16.3217 73.7822 17.1197C72.3715 18.576 70.4767 20.0593 68.4142 21.3818C67.7165 20.6627 67.122 19.7039 66.7087 18.4373C66.1438 16.7058 66.1114 15.3336 66.3484 14.2533C66.5854 13.1735 67.0996 12.3483 67.685 11.7228C68.2735 11.0938 68.9342 10.6668 69.4521 10.3967C69.7099 10.2623 69.9291 10.1684 70.0812 10.1089C70.1572 10.0792 70.2161 10.0583 70.2544 10.0452C70.2735 10.0387 70.2875 10.0341 70.2958 10.0315L70.3033 10.0291L70.3043 10.0288L70.3049 10.0286Z" fill="url(#paint1_linear_367_308)"/>
<path d="M16.9147 1.10437C17.1895 0.648811 17.5864 0.46659 17.9833 0.46659C18.5329 0.46659 19.0214 0.891775 19.0214 1.65103V18.6888C19.0214 19.4177 18.4718 19.7821 17.9223 19.7821C17.3421 19.7821 16.7926 19.4177 16.7926 18.6888V5.32585L10.5641 15.014C10.0145 15.8644 9.00693 15.8644 8.45735 15.014L2.22883 5.38659V18.6888C2.22883 19.4177 1.67926 19.7821 1.12968 19.7821C0.549575 19.7821 0 19.4177 0 18.6888V1.6814C0 0.922145 0.519043 0.46659 1.06862 0.46659C1.435 0.46659 1.83192 0.679183 2.07617 1.13474L9.52597 12.6451L16.9147 1.10437Z" fill="url(#paint2_linear_367_308)"/>
<path d="M26.6165 17.7777H38.6766C39.9589 17.7777 40.1421 19.7821 38.6766 19.7821H25.8226C24.9677 19.7821 24.4182 19.1747 24.4182 18.4458V1.77251C24.4182 1.074 24.9677 0.46659 25.8226 0.46659H38.7071C40.02 0.46659 39.9589 2.41029 38.6766 2.41029H26.6165V9.24362H38.0965C39.3178 9.24362 39.3788 11.1873 38.0965 11.1873H26.6165V17.7777Z" fill="url(#paint3_linear_367_308)"/>
<path fill-rule="evenodd" clip-rule="evenodd" d="M87.7698 18.7495V14.1029H93.235C98.5781 14.1029 101.082 11.0962 101.082 7.45177C101.082 3.95918 98.6087 0.46659 93.3266 0.46659H86.7012C86.0906 0.46659 85.5715 0.891775 85.5715 1.52955V18.7799C85.5715 19.4481 86.1211 19.7821 86.6707 19.7821C87.2202 19.7821 87.7698 19.4481 87.7698 18.7495ZM93.235 12.1288H87.7698V2.44066H93.3572C96.8989 2.44066 98.914 4.9614 98.914 7.45177C98.914 9.75992 97.2958 12.1288 93.235 12.1288Z" fill="url(#paint4_linear_367_308)"/>
<path fill-rule="evenodd" clip-rule="evenodd" d="M106.674 18.7192V13.0399H112.597L118.49 19.3873C118.734 19.6607 119.04 19.7821 119.314 19.7821C120.139 19.7821 120.871 18.7799 120.017 17.9295L115.345 12.9184C119.101 12.2807 120.78 10.0636 120.78 6.99622C120.78 3.44288 118.093 0.46659 112.811 0.46659H105.575C104.903 0.46659 104.445 0.891775 104.445 1.52955V18.7495C104.445 19.4177 104.995 19.7821 105.544 19.7821C106.125 19.7821 106.674 19.4177 106.674 18.7192ZM112.842 11.1266H106.674V2.5014H112.842C116.383 2.5014 118.49 4.50585 118.521 7.1177C118.521 9.33473 116.78 11.1266 112.842 11.1266Z" fill="url(#paint5_linear_367_308)"/>
<path fill-rule="evenodd" clip-rule="evenodd" d="M123.977 9.79029C123.977 16.2288 128.374 20.0858 133.869 20.0858C139.06 20.0858 143.639 16.1073 143.639 9.79029C143.639 2.95696 137.716 0.162887 133.625 0.162887C129.595 0.162887 123.977 2.98733 123.977 9.79029ZM133.869 18.0207C129.564 18.0207 126.267 14.8621 126.267 9.8814C126.267 4.17177 130.572 2.1977 133.686 2.1977C136.831 2.1977 141.38 4.32363 141.38 9.8814C141.38 14.9836 137.991 18.0207 133.869 18.0207Z" fill="url(#paint6_linear_367_308)"/>
<path d="M165.962 0.46659C165.565 0.46659 165.168 0.648811 164.893 1.10437L157.505 12.6451L150.055 1.13474C149.811 0.679183 149.414 0.46659 149.047 0.46659C148.498 0.46659 147.979 0.922145 147.979 1.6814V18.6888C147.979 19.4177 148.528 19.7821 149.108 19.7821C149.658 19.7821 150.207 19.4177 150.207 18.6888V5.38659L156.436 15.014C156.986 15.8644 157.993 15.8644 158.543 15.014L164.771 5.32585V18.6888C164.771 19.4177 165.321 19.7821 165.901 19.7821C166.45 19.7821 167 19.4177 167 18.6888V1.65103C167 0.891775 166.511 0.46659 165.962 0.46659Z" fill="url(#paint7_linear_367_308)"/>
<defs>
<linearGradient id="paint0_linear_367_308" x1="0" y1="13.5" x2="167" y2="13.5" gradientUnits="userSpaceOnUse">
<stop stop-color="#E36F04"/>
<stop offset="0.5" stop-color="#4BAADE"/>
<stop offset="1" stop-color="#022E6B"/>
</linearGradient>
<linearGradient id="paint1_linear_367_308" x1="0" y1="13.5" x2="167" y2="13.5" gradientUnits="userSpaceOnUse">
<stop stop-color="#E36F04"/>
<stop offset="0.5" stop-color="#4BAADE"/>
<stop offset="1" stop-color="#022E6B"/>
</linearGradient>
<linearGradient id="paint2_linear_367_308" x1="0" y1="13.5" x2="167" y2="13.5" gradientUnits="userSpaceOnUse">
<stop stop-color="#E36F04"/>
<stop offset="0.5" stop-color="#4BAADE"/>
<stop offset="1" stop-color="#022E6B"/>
</linearGradient>
<linearGradient id="paint3_linear_367_308" x1="0" y1="13.5" x2="167" y2="13.5" gradientUnits="userSpaceOnUse">
<stop stop-color="#E36F04"/>
<stop offset="0.5" stop-color="#4BAADE"/>
<stop offset="1" stop-color="#022E6B"/>
</linearGradient>
<linearGradient id="paint4_linear_367_308" x1="0" y1="13.5" x2="167" y2="13.5" gradientUnits="userSpaceOnUse">
<stop stop-color="#E36F04"/>
<stop offset="0.5" stop-color="#4BAADE"/>
<stop offset="1" stop-color="#022E6B"/>
</linearGradient>
<linearGradient id="paint5_linear_367_308" x1="0" y1="13.5" x2="167" y2="13.5" gradientUnits="userSpaceOnUse">
<stop stop-color="#E36F04"/>
<stop offset="0.5" stop-color="#4BAADE"/>
<stop offset="1" stop-color="#022E6B"/>
</linearGradient>
<linearGradient id="paint6_linear_367_308" x1="0" y1="13.5" x2="167" y2="13.5" gradientUnits="userSpaceOnUse">
<stop stop-color="#E36F04"/>
<stop offset="0.5" stop-color="#4BAADE"/>
<stop offset="1" stop-color="#022E6B"/>
</linearGradient>
<linearGradient id="paint7_linear_367_308" x1="0" y1="13.5" x2="167" y2="13.5" gradientUnits="userSpaceOnUse">
<stop stop-color="#E36F04"/>
<stop offset="0.5" stop-color="#4BAADE"/>
<stop offset="1" stop-color="#022E6B"/>
</linearGradient>
</defs>
</svg>
