<svg width="282" height="205" viewBox="0 0 282 205" fill="none" xmlns="http://www.w3.org/2000/svg">
<rect x="16" y="28" width="205" height="161" rx="64" fill="#022E6B" stroke="#9ADDF5" stroke-width="32"/>
<rect x="16" y="16" width="205" height="161" rx="64" stroke="#C2EFFF" stroke-width="32"/>
<path d="M100 97C100 104.18 94.1797 110 87 110C79.8203 110 74 104.18 74 97C74 89.8203 79.8203 84 87 84C94.1797 84 100 89.8203 100 97Z" fill="#DFF6E0"/>
<path d="M163 97C163 104.18 157.18 110 150 110C142.82 110 137 104.18 137 97C137 89.8203 142.82 84 150 84C157.18 84 163 89.8203 163 97Z" fill="#DFF6E0"/>
<path d="M137 116.5C137 119.323 136.521 122.119 135.592 124.728C134.662 127.336 133.299 129.706 131.581 131.703C129.864 133.699 127.824 135.283 125.58 136.363C123.335 137.444 120.929 138 118.5 138C116.071 138 113.665 137.444 111.42 136.363C109.176 135.283 107.136 133.699 105.419 131.703C103.701 129.706 102.338 127.336 101.408 124.728C100.479 122.119 100 119.323 100 116.5H137Z" fill="#DFF6E0"/>
<path d="M278 51C278 74.7482 244.42 92 221.5 92C198.58 92 195 74.7482 195 51C195 27.2518 215.08 15 238 15C260.92 15 278 27.2518 278 51Z" fill="white"/>
<path fill-rule="evenodd" clip-rule="evenodd" d="M197 52.5C197 59.4306 198.783 65.9388 201.914 71.5968C202.073 71.883 202.189 72.2027 202.247 72.5456C203.329 78.927 202.166 85.49 198.952 91.1156L198.446 91.9999C205.846 91.9867 213.199 91.0475 220.338 89.2148C220.954 89.0567 221.599 89.0987 222.183 89.3261C226.619 91.052 231.447 92 236.5 92C258.315 92 276 74.3152 276 52.5C276 30.6848 258.315 13 236.5 13C214.685 13 197 30.6848 197 52.5ZM200.275 72.8798C200.257 72.7694 200.219 72.6632 200.164 72.5652C196.873 66.6183 195 59.7779 195 52.5C195 29.5802 213.58 11 236.5 11C259.42 11 278 29.5802 278 52.5C278 75.4198 259.42 94 236.5 94C231.195 94 226.122 93.0045 221.458 91.19C221.259 91.1127 221.042 91.099 220.835 91.152C213.484 93.0393 205.91 94 198.289 94C196.824 94 195.905 92.4167 196.632 91.1442L197.215 90.1233C200.2 84.8996 201.28 78.8053 200.275 72.8798ZM219.208 37.6665C218.656 37.6665 218.208 38.1143 218.208 38.6665C218.208 39.2188 218.656 39.6665 219.208 39.6665L246.875 39.6665C247.427 39.6665 247.875 39.2188 247.875 38.6665C247.875 38.1143 247.427 37.6665 246.875 37.6665L219.208 37.6665ZM218.208 66.3335C218.208 65.7812 218.656 65.3335 219.208 65.3335H236.5C237.052 65.3335 237.5 65.7812 237.5 66.3335C237.5 66.8857 237.052 67.3335 236.5 67.3335H219.208C218.656 67.3335 218.208 66.8857 218.208 66.3335ZM219.208 51.5C218.656 51.5 218.208 51.9477 218.208 52.5C218.208 53.0523 218.656 53.5 219.208 53.5L253.792 53.5C254.344 53.5 254.792 53.0523 254.792 52.5C254.792 51.9477 254.344 51.5 253.792 51.5L219.208 51.5Z" fill="black"/>
<path d="M201.914 71.5968L205.414 69.66L205.414 69.66L201.914 71.5968ZM202.247 72.5456L206.191 71.8773L206.191 71.8773L202.247 72.5456ZM198.952 91.1156L195.479 89.131L195.479 89.131L198.952 91.1156ZM198.446 91.9999L194.973 90.0153C194.265 91.2544 194.271 92.7769 194.989 94.0106C195.706 95.2444 197.026 96.0024 198.453 95.9999L198.446 91.9999ZM220.338 89.2148L219.343 85.3405L219.343 85.3405L220.338 89.2148ZM222.183 89.3261L220.733 93.0539L220.733 93.0539L222.183 89.3261ZM200.164 72.5652L203.664 70.6284L203.664 70.6284L200.164 72.5652ZM200.275 72.8798L196.332 73.548L196.332 73.5481L200.275 72.8798ZM221.458 91.19L222.908 87.4622L222.908 87.4622L221.458 91.19ZM220.835 91.152L219.841 87.2776L219.841 87.2776L220.835 91.152ZM196.632 91.1442L200.105 93.1288L200.105 93.1288L196.632 91.1442ZM197.215 90.1233L193.742 88.1387L193.742 88.1388L197.215 90.1233ZM219.208 37.6665L219.208 33.6665H219.208V37.6665ZM219.208 39.6665L219.208 35.6665H219.208V39.6665ZM246.875 39.6665L246.875 43.6665H246.875V39.6665ZM247.875 38.6665L243.875 38.6665V38.6665H247.875ZM246.875 37.6665L246.875 41.6665H246.875V37.6665ZM219.208 51.5L219.208 47.5H219.208V51.5ZM219.208 53.5L219.208 49.5H219.208V53.5ZM253.792 53.5L253.792 57.5H253.792V53.5ZM254.792 52.5L250.792 52.5V52.5H254.792ZM253.792 51.5L253.792 55.5H253.792V51.5ZM205.414 69.66C202.603 64.5797 201 58.736 201 52.5H193C193 60.1252 194.964 67.2979 198.415 73.5336L205.414 69.66ZM206.191 71.8773C206.054 71.0692 205.781 70.3225 205.414 69.66L198.415 73.5336C198.365 73.4434 198.324 73.3362 198.304 73.2139L206.191 71.8773ZM202.425 93.1001C206.099 86.6709 207.427 79.1703 206.191 71.8773L198.304 73.2139C199.23 78.6837 198.234 84.3091 195.479 89.131L202.425 93.1001ZM201.919 93.9844L202.425 93.1001L195.479 89.131L194.973 90.0153L201.919 93.9844ZM219.343 85.3405C212.527 87.0905 205.505 87.9873 198.439 87.9999L198.453 95.9999C206.187 95.9861 213.872 95.0046 221.333 93.0892L219.343 85.3405ZM223.634 85.5983C222.278 85.0709 220.778 84.9721 219.343 85.3405L221.333 93.0892C221.129 93.1413 220.92 93.1266 220.733 93.0539L223.634 85.5983ZM236.5 88C231.951 88 227.615 87.1472 223.634 85.5983L220.733 93.0539C225.624 94.9569 230.943 96 236.5 96V88ZM272 52.5C272 72.1061 256.106 88 236.5 88V96C260.524 96 280 76.5244 280 52.5H272ZM236.5 17C256.106 17 272 32.8939 272 52.5H280C280 28.4756 260.524 9 236.5 9V17ZM201 52.5C201 32.8939 216.894 17 236.5 17V9C212.476 9 193 28.4756 193 52.5H201ZM196.665 74.502C196.511 74.2235 196.392 73.9027 196.332 73.548L204.219 72.2115C204.122 71.6361 203.927 71.1028 203.664 70.6284L196.665 74.502ZM191 52.5C191 60.4726 193.054 67.9774 196.665 74.502L203.664 70.6284C200.693 65.2592 199 59.0833 199 52.5H191ZM236.5 7C211.371 7 191 27.371 191 52.5H199C199 31.7893 215.789 15 236.5 15V7ZM282 52.5C282 27.371 261.629 7 236.5 7V15C257.211 15 274 31.7893 274 52.5H282ZM236.5 98C261.629 98 282 77.629 282 52.5H274C274 73.2107 257.211 90 236.5 90V98ZM220.008 94.9178C225.126 96.9093 230.691 98 236.5 98V90C231.699 90 227.117 89.0996 222.908 87.4622L220.008 94.9178ZM221.83 95.0264C221.218 95.1835 220.581 95.1407 220.008 94.9178L222.908 87.4622C221.938 87.0848 220.866 87.0145 219.841 87.2776L221.83 95.0264ZM198.289 98C206.246 98 214.154 96.9969 221.83 95.0263L219.841 87.2776C212.814 89.0817 205.573 90 198.289 90V98ZM193.159 89.1596C190.908 93.0988 193.752 98 198.289 98V90C199.895 90 200.901 91.7346 200.105 93.1288L193.159 89.1596ZM193.742 88.1388L193.159 89.1597L200.105 93.1288L200.688 92.1079L193.742 88.1388ZM196.332 73.5481C197.181 78.562 196.268 83.7187 193.742 88.1387L200.688 92.1079C204.132 86.0805 205.378 79.0486 204.219 72.2114L196.332 73.5481ZM222.208 38.6665C222.208 40.3234 220.865 41.6665 219.208 41.6665V33.6665C216.447 33.6665 214.208 35.9051 214.208 38.6665H222.208ZM219.208 35.6665C220.865 35.6665 222.208 37.0097 222.208 38.6665H214.208C214.208 41.428 216.447 43.6665 219.208 43.6665V35.6665ZM246.875 35.6665L219.208 35.6665L219.208 43.6665L246.875 43.6665L246.875 35.6665ZM243.875 38.6665C243.875 37.0097 245.218 35.6665 246.875 35.6665V43.6665C249.636 43.6665 251.875 41.428 251.875 38.6665H243.875ZM246.875 41.6665C245.218 41.6665 243.875 40.3234 243.875 38.6665L251.875 38.6666C251.875 35.9051 249.636 33.6665 246.875 33.6665V41.6665ZM219.208 41.6665L246.875 41.6665L246.875 33.6665L219.208 33.6665L219.208 41.6665ZM219.208 61.3335C216.447 61.3335 214.208 63.572 214.208 66.3335H222.208C222.208 67.9903 220.865 69.3335 219.208 69.3335V61.3335ZM236.5 61.3335H219.208V69.3335H236.5V61.3335ZM241.5 66.3335C241.5 63.572 239.261 61.3335 236.5 61.3335V69.3335C234.843 69.3335 233.5 67.9903 233.5 66.3335H241.5ZM236.5 71.3335C239.261 71.3335 241.5 69.0949 241.5 66.3335H233.5C233.5 64.6766 234.843 63.3335 236.5 63.3335V71.3335ZM219.208 71.3335H236.5V63.3335H219.208V71.3335ZM214.208 66.3335C214.208 69.0949 216.447 71.3335 219.208 71.3335V63.3335C220.865 63.3335 222.208 64.6766 222.208 66.3335H214.208ZM222.208 52.5C222.208 54.1569 220.865 55.5 219.208 55.5V47.5C216.447 47.5 214.208 49.7386 214.208 52.5H222.208ZM219.208 49.5C220.865 49.5 222.208 50.8431 222.208 52.5H214.208C214.208 55.2614 216.447 57.5 219.208 57.5V49.5ZM253.792 49.5L219.208 49.5L219.208 57.5L253.792 57.5L253.792 49.5ZM250.792 52.5C250.792 50.8431 252.135 49.5 253.792 49.5V57.5C256.553 57.5 258.792 55.2614 258.792 52.5H250.792ZM253.792 55.5C252.135 55.5 250.792 54.1569 250.792 52.5L258.792 52.5C258.792 49.7386 256.553 47.5 253.792 47.5V55.5ZM219.208 55.5L253.792 55.5L253.792 47.5L219.208 47.5L219.208 55.5Z" fill="#E36F04"/>
</svg>
