<svg width="43" height="44" viewBox="0 0 43 44" fill="none" xmlns="http://www.w3.org/2000/svg">
<path d="M15.225 7.85239L14.3358 5.81394C13.7544 4.4811 13.4636 3.81466 13.0289 3.30466C12.484 2.6655 11.7738 2.19524 10.9793 1.94753C10.3453 1.74988 9.6295 1.74988 8.19795 1.74988C6.10378 1.74988 5.0567 1.74988 4.17772 2.16003C3.14232 2.64318 2.20724 3.69226 1.83468 4.78873C1.51841 5.71954 1.609 6.67609 1.79019 8.5892C3.71878 28.9528 14.6763 40.1171 34.6628 42.0821C36.5405 42.2667 37.4793 42.359 38.3929 42.0367C39.4691 41.6572 40.4987 40.7044 40.9729 39.6495C41.3755 38.7539 41.3755 37.6871 41.3755 35.5534C41.3755 34.0948 41.3755 33.3656 41.1815 32.7196C40.9384 31.9101 40.4768 31.1865 39.8495 30.6313C39.349 30.1884 38.6948 29.8921 37.3867 29.2998L35.386 28.3938C33.9693 27.7523 33.2609 27.4315 32.5411 27.3618C31.8523 27.295 31.1577 27.3935 30.5129 27.6493C29.8391 27.9166 29.2436 28.4222 28.0526 29.4335C26.8671 30.4401 26.2743 30.9434 25.55 31.213C24.9079 31.452 24.059 31.5405 23.3827 31.4389C22.6198 31.3244 22.0357 31.0063 20.8673 30.3702C17.2322 28.3909 15.2278 26.3487 13.2852 22.645C12.6608 21.4546 12.3487 20.8594 12.2362 20.0822C12.1366 19.3931 12.2235 18.5282 12.458 17.874C12.7226 17.136 13.2166 16.5321 14.2046 15.3241C15.1971 14.1107 15.6933 13.5039 15.9557 12.8174C16.2068 12.1605 16.3034 11.4528 16.2379 10.751C16.1694 10.0176 15.8546 9.29583 15.225 7.85239Z" stroke="white" stroke-width="3" stroke-linecap="round"/>
</svg>
