<svg width="48" height="48" viewBox="0 0 48 48" fill="none" xmlns="http://www.w3.org/2000/svg">
<path d="M14.8804 39.1667C14.1733 38.8809 13.7828 38.7425 13.5644 38.7693C13.2959 38.8021 12.9064 39.088 12.1273 39.6597C10.7537 40.6678 9.02326 41.3918 6.45703 41.3297C5.15939 41.2982 4.51057 41.2825 4.2201 40.7896C3.92963 40.2968 4.29139 39.6145 5.01492 38.25C6.01838 36.3575 6.65417 34.1909 5.69078 32.4549C4.03157 29.9754 2.6222 27.0388 2.41625 23.8673C2.30559 22.1632 2.30559 20.3984 2.41625 18.6943C2.98172 9.98636 9.85386 3.05002 18.4812 2.47926C21.4186 2.28494 24.4916 2.28455 27.4349 2.47926C36.0256 3.04759 42.876 9.9275 43.4924 18.5834" stroke="white" stroke-width="3" stroke-linecap="round" stroke-linejoin="round"/>
<path d="M29.8447 44.9022C24.4068 44.5534 20.0752 40.3145 19.7188 34.993C19.6491 33.9516 19.6491 32.8731 19.7188 31.8317C20.0752 26.5102 24.4068 22.2713 29.8447 21.9225C31.6999 21.8035 33.6369 21.8038 35.4883 21.9225C40.9262 22.2713 45.2578 26.5102 45.6142 31.8317C45.6839 32.8731 45.6839 33.9516 45.6142 34.993C45.4844 36.9312 44.596 38.7257 43.5502 40.241C42.943 41.3018 43.3437 42.6259 43.9762 43.7824C44.4323 44.6163 44.6603 45.0332 44.4772 45.3344C44.2941 45.6356 43.8852 45.6452 43.0673 45.6644C41.4497 45.7024 40.359 45.26 39.4932 44.6439C39.0022 44.2945 38.7567 44.1198 38.5874 44.0997C38.4182 44.0797 38.0852 44.212 37.4193 44.4767C36.8208 44.7145 36.1259 44.8613 35.4883 44.9022C33.6369 45.0209 31.6999 45.0212 29.8447 44.9022Z" stroke="white" stroke-width="3" stroke-linejoin="round"/>
</svg>
